<?xml version="1.0" encoding="UTF-8" standalone="no"?>
<!-- Created with Inkscape (http://www.inkscape.org/) -->

<svg
   xmlns:dc="http://purl.org/dc/elements/1.1/"
   xmlns:cc="http://creativecommons.org/ns#"
   xmlns:rdf="http://www.w3.org/1999/02/22-rdf-syntax-ns#"
   xmlns:svg="http://www.w3.org/2000/svg"
   xmlns="http://www.w3.org/2000/svg"
   xmlns:sodipodi="http://sodipodi.sourceforge.net/DTD/sodipodi-0.dtd"
   xmlns:inkscape="http://www.inkscape.org/namespaces/inkscape"
   width="400"
   height="131.25"
   id="svg3033"
   version="1.1"
   inkscape:version="0.48.4 r9939"
   sodipodi:docname="biglogo.svg"
   inkscape:export-filename="/home/sutashu/Dropbox/Psinque/06 Design/Logo/biglogo.png"
   inkscape:export-xdpi="265.70001"
   inkscape:export-ydpi="265.70001">
  <defs
     id="defs3035" />
  <sodipodi:namedview
     id="base"
     pagecolor="#ffffff"
     bordercolor="#666666"
     borderopacity="1.0"
     inkscape:pageopacity="0.0"
     inkscape:pageshadow="2"
     inkscape:zoom="2.8"
     inkscape:cx="163.45455"
     inkscape:cy="42.299026"
     inkscape:document-units="px"
     inkscape:current-layer="layer1"
     showgrid="false"
     fit-margin-top="0"
     fit-margin-left="0"
     fit-margin-right="0"
     fit-margin-bottom="0"
     inkscape:window-width="1918"
     inkscape:window-height="1060"
     inkscape:window-x="0"
     inkscape:window-y="18"
     inkscape:window-maximized="0" />
  <metadata
     id="metadata3038">
    <rdf:RDF>
      <cc:Work
         rdf:about="">
        <dc:format>image/svg+xml</dc:format>
        <dc:type
           rdf:resource="http://purl.org/dc/dcmitype/StillImage" />
        <dc:title></dc:title>
      </cc:Work>
    </rdf:RDF>
  </metadata>
  <g
     inkscape:label="Layer 1"
     inkscape:groupmode="layer"
     id="layer1"
     transform="translate(-318.19808,-399.87349)">
    <g
       id="g4139"
       transform="matrix(1.767767,0,0,1.767767,-244.30195,-407.77905)">
      <rect
         y="456.87726"
         x="318.19806"
         height="74.246208"
         width="226.27417"
         id="rect3054"
         style="fill:#ffffff;fill-opacity:1;stroke:none" />
      <path
         id="path14"
         style="fill:#e35c33;fill-opacity:1;fill-rule:evenodd;stroke:none"
         d="m 516.17494,469.7192 c 2.373,-3.62875 6.47113,-6.02713 11.12925,-6.02713 7.33738,0 13.28838,5.95063 13.28838,13.28838 l 0,0 -9.42338,0 2.251,-3.63825 c -4.55562,-4.669 -11.22587,-5.46263 -17.24525,-3.623"
         inkscape:connector-curvature="0" />
      <path
         id="path16"
         style="fill:#191919;fill-opacity:1;fill-rule:evenodd;stroke:none"
         d="m 538.43295,484.24182 c -2.373,3.62838 -6.47075,6.02675 -11.12876,6.02675 -7.33787,0 -13.2885,-5.95062 -13.2885,-13.28812 l 0,0 9.423,0 -2.25062,3.638 c 4.55525,4.669 11.22588,5.46262 17.24488,3.62337"
         inkscape:connector-curvature="0" />
      <path
         id="path18"
         style="fill:#191919;fill-opacity:1;fill-rule:nonzero;stroke:none"
         d="m 326.59995,512.11595 c 0.0638,-0.5095 0.11125,-0.97088 0.1325,-1.40388 0.0213,-0.42337 0.0386,-0.75962 0.0315,-1.01975 0.002,-0.25975 0.005,-0.39437 0.004,-0.404 l 0.11525,0 c 0.48675,1.462 1.21712,2.67388 2.18187,3.6355 0.96488,0.9715 2.10725,1.693 3.40688,2.17375 1.309,0.47163 2.7185,0.7115 4.22862,0.7115 1.6055,-0.009 3.145,-0.30712 4.62788,-0.89387 1.473,-0.58688 2.83362,-1.43338 4.08162,-2.5395 1.24788,-1.10588 2.318,-2.43325 3.21163,-3.982 0.9025,-1.54813 1.57212,-3.28888 2.00875,-5.21263 0.43575,-1.93312 0.5935,-4.01062 0.46275,-6.24212 -0.1475,-2.33725 -0.68775,-4.35688 -1.603,-6.04988 -0.92375,-1.69262 -2.18913,-3.00087 -3.82438,-3.92387 -1.62637,-0.92338 -3.5695,-1.38513 -5.84962,-1.39463 -1.32663,0.01 -2.5465,0.1825 -3.64963,0.5385 -1.11225,0.35575 -2.1025,0.82738 -2.98737,1.43338 -0.88538,0.60587 -1.65888,1.29825 -2.32263,2.0675 -0.66325,0.76962 -1.21812,1.5775 -1.655,2.424 l -0.1155,0 c 0.009,-0.01 0.0392,-0.13475 0.10125,-0.37525 0.0705,-0.25025 0.14675,-0.56763 0.22788,-0.962 0.0819,-0.3845 0.151,-0.80763 0.19912,-1.25975 l 0.37775,-3.17375 -2.42362,0 -5.30363,40.3955 2.424,0 1.91163,-14.54275 z m 1.35525,-7.79038 c -0.095,-1.51012 0.0113,-3.039 0.298,-4.5875 0.28775,-1.53912 0.75225,-3.02025 1.40387,-4.4245 0.64313,-1.40462 1.468,-2.66425 2.45625,-3.77037 0.98788,-1.10588 2.14475,-1.9815 3.46075,-2.62563 1.30563,-0.64425 2.77538,-0.97162 4.3905,-0.9815 1.68413,0.01 3.14038,0.37563 4.37875,1.1065 1.24838,0.731 2.22838,1.7795 2.94838,3.1355 0.72,1.356 1.1495,2.98138 1.26887,4.87638 0.12013,2.05787 -0.0205,3.94325 -0.41387,5.64587 -0.40175,1.71138 -0.9985,3.23113 -1.79,4.55875 -0.80113,1.327 -1.73025,2.45238 -2.79788,3.37575 -1.0675,0.91388 -2.20637,1.61575 -3.427,2.08738 -1.22037,0.48087 -2.446,0.721 -3.69612,0.721 -1.33713,-0.01 -2.526,-0.24975 -3.54713,-0.73088 -1.02012,-0.471 -1.879,-1.125 -2.58562,-1.962 -0.70725,-0.8465 -1.249,-1.8085 -1.64513,-2.90475 -0.38625,-1.096 -0.624,-2.2695 -0.70262,-3.52 z m 24.21812,7.27125 c 3.8e-4,0.01 0.16338,0.15375 0.49863,0.44263 0.32587,0.27875 0.79962,0.625 1.441,1.03812 0.63137,0.41425 1.40887,0.837 2.32937,1.25075 0.9305,0.41388 1.98138,0.75975 3.18188,1.03863 1.19162,0.28837 2.50837,0.433 3.95187,0.44212 1.56688,-0.009 3.01538,-0.23025 4.34375,-0.66325 1.32913,-0.43262 2.48275,-1.04812 3.46113,-1.856 0.97862,-0.79862 1.717,-1.75075 2.2245,-2.85662 0.507,-1.1065 0.7285,-2.33713 0.653,-3.68363 -0.0857,-1.21212 -0.39263,-2.26025 -0.91063,-3.155 -0.51737,-0.885 -1.18137,-1.65425 -1.98175,-2.29887 -0.81,-0.6445 -1.68175,-1.20188 -2.62637,-1.683 -0.94325,-0.48088 -1.87538,-0.92338 -2.81438,-1.31775 -0.93862,-0.39438 -1.8,-0.78838 -2.59412,-1.18275 -0.7845,-0.39438 -1.42763,-0.82775 -1.91863,-1.29863 -0.4915,-0.471 -0.76687,-1.0195 -0.81575,-1.6445 -0.0375,-0.75012 0.10463,-1.39462 0.43663,-1.924 0.322,-0.53862 0.76637,-0.97125 1.322,-1.30787 0.55587,-0.33663 1.17487,-0.58638 1.8375,-0.75013 0.66362,-0.15375 1.32275,-0.231 1.96725,-0.231 1.15475,0.01 2.16287,0.13463 3.03337,0.36563 0.871,0.24025 1.5995,0.50962 2.17713,0.8175 0.57675,0.30787 1.01725,0.57725 1.31062,0.80787 0.29413,0.24063 0.43688,0.36563 0.43763,0.37525 l 2.526,-3.8665 c -7.5e-4,-0.009 -0.13325,-0.12475 -0.39575,-0.33625 -0.264,-0.21225 -0.65588,-0.48112 -1.18563,-0.79862 -0.51987,-0.31788 -1.17575,-0.6445 -1.95562,-0.96163 -0.77988,-0.3175 -1.68125,-0.58687 -2.71413,-0.79875 -1.03325,-0.21112 -2.19437,-0.32662 -3.47425,-0.33625 -1.40412,0 -2.74775,0.202 -4.04925,0.606 -1.3025,0.39425 -2.458,0.98075 -3.47737,1.75 -1.01913,0.77 -1.806,1.71213 -2.37088,2.82788 -0.56412,1.11575 -0.80187,2.385 -0.73062,3.81862 0.0854,1.20225 0.39187,2.25038 0.90925,3.1355 0.517,0.87513 1.17075,1.63488 1.9715,2.27938 0.79937,0.63462 1.67212,1.20187 2.60575,1.6735 0.94387,0.48087 1.87512,0.9135 2.81375,1.30787 0.929,0.39475 1.79,0.78875 2.57525,1.18313 0.7845,0.394 1.418,0.827 1.9095,1.29862 0.49075,0.47125 0.766,1.01938 0.81525,1.64475 0.0359,0.72075 -0.10663,1.35575 -0.4195,1.89463 -0.3125,0.53862 -0.7455,0.99075 -1.29938,1.356 -0.5545,0.35575 -1.17237,0.62512 -1.84387,0.80787 -0.681,0.1825 -1.36775,0.26938 -2.05088,0.26938 -1.03925,-0.01 -1.9885,-0.11588 -2.85837,-0.32713 -0.85925,-0.21112 -1.62638,-0.48075 -2.3,-0.78875 -0.67388,-0.3175 -1.2415,-0.625 -1.704,-0.9425 -0.46163,-0.30787 -0.81525,-0.57687 -1.05013,-0.78912 -0.24387,-0.21113 -0.36575,-0.31713 -0.36637,-0.32663 l -2.82588,3.6935 z m 25.08663,3.51988 5.59775,0 3.8735,-29.20038 -5.59763,0 -3.87362,29.20038 z m 11.99662,0 5.59738,0 1.69937,-13.33025 c 0.21075,-1.53888 0.64763,-3.00075 1.30213,-4.36675 0.6545,-1.36563 1.49137,-2.587 2.50187,-3.645 1.011,-1.058 2.16075,-1.88538 3.4495,-2.49125 1.28975,-0.60563 2.66488,-0.9135 4.14525,-0.92313 1.34575,-0.01 2.41588,0.33638 3.22863,1.0195 0.80362,0.69238 1.26425,1.75038 1.365,3.19325 0.0308,0.49038 0.0251,1.00975 -0.0171,1.558 -0.0425,0.5485 -0.10238,1.125 -0.18,1.73088 l -2.25988,17.25475 5.59775,0 2.41438,-18.46625 c 0.0741,-0.66363 0.12975,-1.30788 0.16687,-1.93325 0.0376,-0.625 0.0394,-1.21213 0.005,-1.76025 -0.12112,-1.7695 -0.56875,-3.22238 -1.33337,-4.36675 -0.77413,-1.14413 -1.8085,-1.99038 -3.122,-2.53888 -1.305,-0.55762 -2.83213,-0.827 -4.57263,-0.827 -1.46162,0.01 -2.82262,0.231 -4.08437,0.66338 -1.26138,0.433 -2.39,1.00025 -3.3945,1.68375 -1.01475,0.692 -1.86263,1.4325 -2.572,2.23087 -0.70063,0.78875 -1.22988,1.54838 -1.5775,2.28938 l -0.1155,0 c 0.009,-0.01 0.0489,-0.14463 0.11825,-0.41388 0.0801,-0.25937 0.16412,-0.606 0.263,-1.0195 0.0981,-0.423 0.186,-0.86562 0.25225,-1.33687 l 0.42025,-3.40513 -5.48187,0 -3.81575,29.20038 z m 32.18063,-11.195 c 0.162,2.414 0.71712,4.511 1.68525,6.29037 0.96762,1.76963 2.295,3.14475 3.99112,4.11625 1.68663,0.97125 3.69963,1.47163 6.03713,1.48075 1.20187,-0.009 2.29812,-0.163 3.28925,-0.46087 0.991,-0.29875 1.88925,-0.70238 2.67487,-1.20263 0.78625,-0.5 1.47225,-1.05812 2.049,-1.67387 0.57763,-0.60563 1.04775,-1.231 1.41238,-1.856 l 0.1155,0 c 10e-4,0.01 -0.0404,0.12475 -0.11163,0.36562 -0.0609,0.24988 -0.14662,0.56738 -0.22637,0.98088 -0.09,0.40425 -0.17713,0.856 -0.24125,1.36587 l -1.69938,13.33063 5.598,0 5.3395,-40.74238 -5.36712,0 -0.2555,2.36663 c -0.0779,0.58637 -0.12463,1.06725 -0.1395,1.44287 -0.0149,0.3745 -0.0224,0.56725 -0.0216,0.57675 l -0.11525,0 c -0.54025,-1.09625 -1.24325,-2.02925 -2.12737,-2.77962 -0.88441,-0.75013 -1.90166,-1.32738 -3.07028,-1.71188 -1.16925,-0.39437 -2.45125,-0.58675 -3.83638,-0.58675 -1.68262,0.01 -3.29912,0.29838 -4.84012,0.87525 -1.54138,0.57688 -2.96013,1.41413 -4.24775,2.5005 -1.2975,1.08675 -2.40725,2.39488 -3.33038,3.92425 -0.9325,1.53913 -1.62212,3.2605 -2.07875,5.17425 -0.45675,1.91413 -0.61412,3.9915 -0.48337,6.22313 z m 5.6845,-0.46175 c -0.0964,-1.6735 0.0189,-3.21238 0.35437,-4.59738 0.326,-1.39437 0.816,-2.626 1.47825,-3.71237 0.65375,-1.0775 1.4135,-1.991 2.29925,-2.74138 0.87663,-0.74062 1.81213,-1.30825 2.807,-1.70262 0.99538,-0.3845 2.00275,-0.57688 3.01288,-0.57688 1.135,0.01 2.12812,0.202 2.98,0.58675 0.8415,0.3845 1.558,0.9135 2.12912,1.58675 0.57188,0.68313 1.00563,1.462 1.32163,2.357 0.30575,0.88438 0.49075,1.83688 0.55487,2.85625 0.0851,1.3465 -0.0138,2.67375 -0.2785,3.97213 -0.26425,1.2985 -0.68812,2.51037 -1.25075,3.65525 -0.57337,1.1345 -1.26925,2.14475 -2.09937,3.01 -0.82988,0.8755 -1.76813,1.558 -2.81413,2.04837 -1.03637,0.50063 -2.1745,0.75088 -3.38562,0.75975 -1.37625,-0.009 -2.5685,-0.30725 -3.5965,-0.90362 -1.02825,-0.59625 -1.8425,-1.46188 -2.452,-2.57775 -0.59875,-1.11538 -0.95238,-2.45225 -1.0605,-4.02025 z m 28.30112,5.07825 c 0.0939,1.33662 0.37738,2.47187 0.85863,3.40487 0.47225,0.92338 1.09662,1.6735 1.86337,2.24075 0.76638,0.56763 1.62925,0.98113 2.5785,1.24088 0.9595,0.25975 1.95763,0.38437 3.00575,0.38437 1.44213,-0.009 2.767,-0.20162 3.9845,-0.56725 1.20863,-0.36562 2.3035,-0.8465 3.28463,-1.45237 0.98175,-0.596 1.84424,-1.25963 2.59725,-1.98113 0.74337,-0.72137 1.37125,-1.44275 1.88387,-2.15462 0.51212,-0.72113 0.90363,-1.38475 1.1835,-1.98113 l 0.1155,0 c 3.8e-4,0.01 -0.04,0.13475 -0.11012,0.39438 -0.061,0.25025 -0.146,0.57725 -0.22675,0.98087 -0.0898,0.40425 -0.17863,0.827 -0.24638,1.2795 l -0.6215,4.78938 2.42363,0 3.78,-28.8535 -2.42363,0 -1.75312,13.38812 c -0.17475,1.356 -0.52263,2.7025 -1.04538,4.02975 -0.53212,1.31775 -1.20362,2.56825 -2.0335,3.74138 -0.8305,1.17362 -1.78475,2.2125 -2.8725,3.10675 -1.08775,0.90425 -2.2745,1.61612 -3.55962,2.12562 -1.29438,0.51913 -2.66275,0.77888 -4.10525,0.78838 -1.49138,-0.01 -2.661,-0.24975 -3.52663,-0.7115 -0.866,-0.46163 -1.48287,-1.09663 -1.86987,-1.90413 -0.388,-0.80787 -0.59913,-1.722 -0.65513,-2.751 -0.0836,-1.327 -0.005,-2.82762 0.236,-4.50137 l 2.25675,-17.312 -2.42362,0 -2.368,18.2935 c -0.0989,0.72062 -0.17088,1.41375 -0.2055,2.077 -0.045,0.66375 -0.0433,1.29862 -0.005,1.9045 z m 29.97888,-4.78975 c 0.12762,1.86587 0.54987,3.53975 1.2685,5.02087 0.719,1.49063 1.68337,2.75063 2.89387,3.79875 1.21038,1.0485 2.6075,1.84713 4.191,2.4045 1.5835,0.5485 3.303,0.82738 5.16013,0.8365 1.2015,-0.009 2.32787,-0.14375 3.37962,-0.394 1.05125,-0.25975 1.99375,-0.56725 2.84563,-0.9425 0.85137,-0.37487 1.57737,-0.75962 2.18825,-1.13487 0.61125,-0.37525 1.0825,-0.68288 1.41237,-0.9425 0.33063,-0.24988 0.49538,-0.38488 0.49438,-0.39475 l -1.06125,-2.193 c 7.5e-4,0.01 -0.15525,0.135 -0.4475,0.37562 -0.30188,0.25013 -0.72538,0.54813 -1.28025,0.90388 -0.56438,0.35575 -1.22425,0.72137 -1.9995,1.07712 -0.77625,0.35613 -1.64163,0.66375 -2.59788,0.90425 -0.95637,0.24025 -1.98712,0.36538 -3.08337,0.37488 -1.6835,-0.01 -3.1805,-0.26925 -4.48275,-0.77875 -1.30138,-0.50988 -2.40438,-1.22175 -3.308,-2.13525 -0.90426,-0.91375 -1.61538,-1.97175 -2.11425,-3.174 -0.49888,-1.20225 -0.79225,-2.50063 -0.88013,-3.89525 -0.033,-0.51938 -0.0369,-1.03888 -0.0125,-1.5675 0.0249,-0.5195 0.0773,-1.058 0.158,-1.60625 l 23.14138,0 c 0.009,-0.0197 0.061,-0.25013 0.1485,-0.693 0.0974,-0.44225 0.17675,-1.0095 0.259,-1.69263 0.0722,-0.68287 0.0954,-1.38475 0.0591,-2.11575 -0.0931,-1.48112 -0.37125,-2.8375 -0.8535,-4.07837 -0.47237,-1.24013 -1.15587,-2.31763 -2.03137,-3.241 -0.87561,-0.91388 -1.96873,-1.62538 -3.26023,-2.12563 -1.29188,-0.5095 -2.808,-0.75975 -4.54,-0.76925 -1.95163,0.01 -3.76725,0.34575 -5.42838,1.00025 -1.66112,0.66363 -3.15175,1.5775 -4.46312,2.74113 -1.30213,1.16362 -2.40988,2.51 -3.30413,4.04887 -0.90325,1.53925 -1.55937,3.18375 -1.98637,4.95363 -0.4185,1.75987 -0.573,3.578 -0.46563,5.434 z m 3.16062,-5.71325 c 0.48975,-1.69263 1.17538,-3.17375 2.047,-4.44338 0.87163,-1.27912 1.87263,-2.33712 3.00188,-3.19312 1.13875,-0.85613 2.3485,-1.50063 3.639,-1.93325 1.29012,-0.433 2.60425,-0.6445 3.94125,-0.6445 1.42362,0 2.70025,0.26962 3.85112,0.827 1.1605,0.55837 2.08888,1.40412 2.8155,2.55862 0.71725,1.15438 1.14625,2.616 1.26825,4.405 0.0282,0.45175 0.0346,0.856 0.0194,1.22138 -0.0159,0.36562 -0.0354,0.65412 -0.0609,0.86562 -0.0145,0.2215 -0.0369,0.327 -0.0365,0.33663 l -20.486,0 z"
         inkscape:connector-curvature="0" />
    </g>
  </g>
</svg>
