<?xml version="1.0" encoding="UTF-8" standalone="no"?>
<!-- Created with Inkscape (http://www.inkscape.org/) -->

<svg
   xmlns:dc="http://purl.org/dc/elements/1.1/"
   xmlns:cc="http://creativecommons.org/ns#"
   xmlns:rdf="http://www.w3.org/1999/02/22-rdf-syntax-ns#"
   xmlns:svg="http://www.w3.org/2000/svg"
   xmlns="http://www.w3.org/2000/svg"
   version="1.1"
   width="38.046566"
   height="38.046623"
   id="svg2"
   xml:space="preserve"><metadata
     id="metadata8"><rdf:RDF><cc:Work
         rdf:about=""><dc:format>image/svg+xml</dc:format><dc:type
           rdf:resource="http://purl.org/dc/dcmitype/StillImage" /><dc:title></dc:title></cc:Work></rdf:RDF></metadata><defs
     id="defs6" /><g
     transform="matrix(1.25,0,0,-1.25,-242.28859,663.25012)"
     id="g10"><g
       transform="matrix(0.15852719,0,0,0.15852719,161.86572,420.91767)"
       id="g3804"><path
         d="m 217.2387,648.3427 c 17.1411,26.2137 46.7487,43.5413 80.3997,43.5413 53.0104,0 96.0001,-42.9897 96.0001,-96.0001 l 0,-3e-4 -68.0766,0 16.2618,26.2826 c -32.91,33.7331 -81.1004,39.4648 -124.585,26.1765"
         id="path14"
         style="fill:#e35c33;fill-opacity:1;fill-rule:evenodd;stroke:none" /><path
         d="m 378.0383,543.4248 c -17.1411,-26.2137 -46.7487,-43.5413 -80.3999,-43.5413 -53.0105,0 -96.0001,42.9897 -96.0001,96.0001 l 0,3e-4 68.0768,0 -16.2621,-26.2828 c 32.9103,-33.7329 81.1007,-39.4645 124.5853,-26.1763"
         id="path16"
         style="fill:#292926;fill-opacity:1;fill-rule:evenodd;stroke:none" /></g></g></svg>